<svg xmlns="http://www.w3.org/2000/svg" width="108" height="74" viewBox="0 0 108 74" role="img" aria-label="Python"><title>Python</title><style>text{font-family:Arial,Helvetica,sans-serif} .mono{font-family:Consolas,monospace} .signal{offset-path:path('M 825 140 L 912 140 L 912 100 L 1020 100 L 1020 195 L 1118 195');animation:travel 8s linear infinite} @keyframes travel{from{offset-distance:0%}to{offset-distance:100%}} @media(prefers-reduced-motion:reduce){.signal{animation:none;display:none}}</style><g transform="translate(29 4) scale(.8)" fill="none" stroke="#34D399" stroke-width="2" stroke-linecap="round" stroke-linejoin="round"><path d="M19 24V12q0-6 10-6h8q5 0 5 6v12H28v7H16q-6 0-6-8t6-8h3M42 20h7q6 0 6 8t-6 8h-7v5q0 6-10 6h-8q-5 0-5-6v-6h14v-7h9z"/><circle cx="27" cy="12" r="1"/><circle cx="35" cy="41" r="1"/></g><text x="54" y="65" font-size="12" fill="#A7CDBB" text-anchor="middle">Python</text></svg>